<svg xmlns="http://www.w3.org/2000/svg" viewBox="0 5 501.1 600.7375" x="0px" y="0px">
    <path d="M493.6,465.59H462.23V317.08a64.49,64.49,0,0,0-64.41-64.41H392.4V143.61a47.09,47.09,0,0,0-47-47H270.05l32.1-32.1a37.6,37.6,0,0,0,0-53.17l-.09-.09A37.32,37.32,0,0,0,275.49.2h0a37.37,37.37,0,0,0-24.82,9.34A37.67,37.67,0,0,0,199,64.28l32.31,32.3H155.73a47.08,47.08,0,0,0-47,47V252.67h-5.42a64.49,64.49,0,0,0-64.42,64.41V465.59H7.5a7.5,7.5,0,0,0,0,15H493.6a7.5,7.5,0,0,0,0-15Zm-284-444a22.68,22.68,0,0,1,32.05,0l3.74,3.74a7.5,7.5,0,0,0,5.3,2.19h0A7.54,7.54,0,0,0,256,25.36l3.53-3.54a22.47,22.47,0,0,1,16-6.62h0a22.4,22.4,0,0,1,15.95,6.59l.07.07,0,0a22.62,22.62,0,0,1,0,32L250.66,94.76,209.57,53.67A22.7,22.7,0,0,1,209.57,21.62Zm-53.84,90H345.37a32.08,32.08,0,0,1,31.71,27.59c-10.45,3.53-16.27,13.92-21.12,22.59-5.61,10-9.38,16.16-15.85,16.16s-10.24-6.14-15.85-16.16c-5.94-10.62-13.34-23.84-28.93-23.84s-23,13.22-28.94,23.84c-5.61,10-9.37,16.16-15.84,16.16s-10.24-6.14-15.85-16.16c-5.95-10.62-13.34-23.84-28.94-23.84s-23,13.22-28.93,23.84c-5.61,10-9.38,16.16-15.85,16.16s-10.23-6.14-15.84-16.16c-4.85-8.66-10.67-19.06-21.12-22.59A32.08,32.08,0,0,1,155.73,111.58Zm-32,44.87c2.72,2.79,5.25,7.12,8.34,12.64,5.95,10.62,13.34,23.83,28.93,23.83s23-13.21,28.94-23.83c5.61-10,9.37-16.17,15.84-16.17s10.24,6.15,15.85,16.17c5.94,10.62,13.34,23.83,28.94,23.83s23-13.21,28.93-23.83c5.61-10,9.38-16.17,15.85-16.17s10.23,6.15,15.84,16.17c5.95,10.62,13.35,23.83,28.94,23.83s23-13.21,28.94-23.83c3.09-5.52,5.62-9.85,8.35-12.64v96.22H123.71ZM103.29,267.67H397.82a49.47,49.47,0,0,1,49.41,49.41V318c-13,3.08-20,15.74-25.75,26.17-6.56,11.9-11.1,19.12-18.8,19.12s-12.23-7.22-18.79-19.12S369.08,317.24,352,317.24,326.64,332.15,320,344.12,309,363.24,301.26,363.24,289,356,282.47,344.12s-14.82-26.88-31.93-26.88-25.32,14.91-31.92,26.88-11.09,19.12-18.79,19.12S187.6,356,181.05,344.12s-14.82-26.88-31.93-26.88-25.32,14.91-31.92,26.88-11.1,19.12-18.79,19.12S86.18,356,79.62,344.12C73.87,333.69,66.89,321,53.87,318v-.87A49.47,49.47,0,0,1,103.29,267.67ZM53.87,465.59V334.12c4.41,2.86,8,8.89,12.62,17.24,6.6,12,14.81,26.88,31.92,26.88s25.32-14.9,31.93-26.88,11.09-19.12,18.78-19.12,12.23,7.23,18.79,19.12,14.82,26.88,31.92,26.88,25.33-14.9,31.93-26.88,11.09-19.12,18.78-19.12,12.23,7.23,18.79,19.12,14.82,26.88,31.93,26.88,25.32-14.9,31.92-26.88,11.09-19.12,18.79-19.12,12.23,7.23,18.79,19.12,14.82,26.88,31.92,26.88,25.33-14.9,31.93-26.88c4.61-8.35,8.22-14.38,12.62-17.25V465.59Z"/>
</svg>