<svg xmlns:svg="http://www.w3.org/2000/svg"
    xmlns:rdf="http://www.w3.org/1999/02/22-rdf-syntax-ns#"
    xmlns:dc="http://purl.org/dc/elements/1.1/"
    xmlns:inkscape="http://www.inkscape.org/namespaces/inkscape"
    xmlns:sodipodi="http://sodipodi.sourceforge.net/DTD/sodipodi-0.dtd"
    xmlns:cc="http://creativecommons.org/ns#"
    xmlns="http://www.w3.org/2000/svg"
    xmlns:xlink="http://www.w3.org/1999/xlink" version="1.1" x="0px" y="0px" viewBox="1327 -17 64 80" enable-background="new 1327 -17 64 64" xml:space="preserve">
    <g transform="translate(-142.44344)">
        <path d="M1506.846-16.724l-1.502,5.214l-5.213,1.501l5.213,1.501l1.502,5.213   l1.502-5.213l5.215-1.501l-5.215-1.501L1506.846-16.724z M1525.477-4.222l-0.82,2.844l-2.85,0.823l2.85,0.819l0.82,2.851   l0.818-2.851l2.85-0.819l-2.85-0.823L1525.477-4.222z M1486.232-3.012V3.4l4.246,3.086l4.248-3.086v-6.412h-4.248H1486.232z    M1512.977-2.1l-0.822,2.846l-2.85,0.821l2.85,0.821l0.822,2.85l0.82-2.85l2.846-0.821l-2.846-0.821L1512.977-2.1z M1496.303,2.882   v1.327l-3.086,2.24c3.188,0.565,5.971,2.271,7.893,4.703c1.434-0.473,2.939-0.79,4.494-0.912   C1503.492,6.797,1500.197,4.176,1496.303,2.882z M1484.656,3.189c-6.379,2.521-10.914,8.746-10.914,16.006   c0,9.477,7.719,17.211,17.197,17.211c9.48,0,17.211-7.734,17.211-17.211c0-0.889-0.082-1.757-0.219-2.609   c6.801,0.418,12.152,6.017,12.152,12.925c0,7.182-5.781,12.964-12.965,12.964c-4.141,0-7.809-1.929-10.178-4.931   c-1.434,0.474-2.934,0.797-4.492,0.917c3.031,4.941,8.471,8.263,14.67,8.263c9.48,0,17.195-7.737,17.195-17.213   c0-9.478-7.715-17.214-17.195-17.214c-9.479,0-17.211,7.736-17.211,17.214c0,0.892,0.094,1.755,0.23,2.608   c-6.805-0.412-12.162-6.012-12.162-12.924c0-6.149,4.242-11.262,9.967-12.609l-3.287-2.377V3.189z M1503.689,17.014   c0.125,0.711,0.217,1.434,0.217,2.182c0,5.993-4.033,10.999-9.541,12.496c-0.123-0.707-0.211-1.434-0.211-2.181   C1494.154,23.516,1498.184,18.509,1503.689,17.014z"/>
    </g>
</svg>