<svg xmlns="http://www.w3.org/2000/svg"
    xmlns:xlink="http://www.w3.org/1999/xlink" version="1.1" x="0px" y="0px" viewBox="0 0 100 125" style="enable-background:new 0 0 100 100;" xml:space="preserve">
    <path d="M35.7,9.5c-1.2,0.3-2.2,1-2.7,2.1c-1,2-0.2,4.5,1.8,5.5l0,0l6.8,3.5l4.6-6.1c0.7-0.9,0.9-2,0.8-3.1c-0.1-1.1-0.7-2-1.6-2.7  c-0.9-0.7-2-1-3.1-0.8s-2,0.7-2.7,1.5l-0.1,0.2C39.3,9.9,39,10,38.7,9.8l-0.2-0.1C37.6,9.4,36.6,9.3,35.7,9.5z"/>
    <path d="M51.5,58.4c-1-0.2-2.1,0.1-3,0.8c-1.5,1.3-1.7,3.6-0.4,5.1l0,0l4.4,5.2l5.8-3.4c0.8-0.5,1.4-1.3,1.7-2.2  c0.3-0.9,0.1-1.9-0.4-2.8c-0.5-0.8-1.3-1.5-2.2-1.7s-1.9-0.1-2.7,0.3l-0.2,0.1c-0.3,0.2-0.5,0.1-0.7-0.1l-0.1-0.2  C53,58.9,52.3,58.6,51.5,58.4z"/>
    <path d="M89.2,73.9L79,70l-4.1-19.9c7.5-2.8,12-10.8,10.3-18.8l-3.6-17.4l-0.2-1.2l-0.2-1.2l-32.5,6.9l0.2,1.2l0.2,1.2L52.7,38  c0.5,2.6,1.6,4.8,3.1,6.8l0,0l0,0c3.2,4.2,8.4,6.6,13.9,6.4l4.1,19.9L66,78.7c-0.9,0.9-0.7,1.4,0.6,1.2l22.5-4.7  C90.4,74.9,90.4,74.4,89.2,73.9z M59,30.5c0-2,1.6-3.6,3.6-3.6s3.6,1.6,3.6,3.6c0,2-1.6,3.6-3.6,3.6S59,32.5,59,30.5z M67.3,43.1  c-1.3,0-2.4-1.1-2.4-2.4c0-1.3,1.1-2.4,2.4-2.4c1.3,0,2.4,1.1,2.4,2.4C69.7,42.1,68.6,43.1,67.3,43.1z M64.5,23.4  c-3.9-1.6-7-1.7-9.4-0.1c-0.5,0.3-0.9,0.7-1.3,1.2l-1-4.6l24.8-5.1l1.9,8.2c-0.4,0.6-0.9,1.1-1.7,1.5C74.9,26.1,70.1,25.7,64.5,23.4  z M71.8,32.5c0-1.8,1.5-3.3,3.3-3.3c1.8,0,3.3,1.5,3.3,3.3s-1.5,3.3-3.3,3.3C73.3,35.7,71.8,34.3,71.8,32.5z"/>
    <path d="M16.5,24.4l-0.2,1.2l-0.2,1.2l-2.9,17.5c-1.4,8.1,3.5,15.9,11,18.4l-3.4,20L10.7,87c-1.2,0.5-1.1,1.1,0.2,1.3L33.6,92  c1.3,0.2,1.5-0.3,0.6-1.2l-8.1-7.3l3.4-20c8,0,15.1-5.7,16.4-13.8l2.9-17.5L49,31l0.2-1.2L16.5,24.4z M20.8,40.7  c0-2,1.6-3.6,3.6-3.6c2,0,3.6,1.6,3.6,3.6c0,2-1.6,3.6-3.6,3.6C22.4,44.3,20.8,42.7,20.8,40.7z M27.3,54.1c-1.1,0-2-0.9-2-2  c0-1.1,0.9-2,2-2c1.1,0,2,0.9,2,2C29.4,53.2,28.5,54.1,27.3,54.1z M35.5,49.1c-1.3,0-2.4-1.1-2.4-2.4c0-1.3,1.1-2.4,2.4-2.4  c1.3,0,2.4,1.1,2.4,2.4C37.9,48,36.9,49.1,35.5,49.1z M43.5,39.9c-0.6,0.4-1.3,0.7-2.1,0.8c-3.3,0.4-7.6-1.7-12-5.8  c-3-2.9-6-4.1-8.7-3.5c-0.6,0.1-1.1,0.4-1.6,0.6l0.8-4.6l25,4.2L43.5,39.9z"/>
</svg>