<?xml version="1.0" encoding="utf-8"?>
<!-- Generator: Adobe Illustrator 25.0.1, SVG Export Plug-In . SVG Version: 6.00 Build 0)  -->
<svg version="1.1" id="Capa_1" fill="#FFB75C" xmlns="http://www.w3.org/2000/svg" xmlns:xlink="http://www.w3.org/1999/xlink" x="0px" y="0px"
	 viewBox="0 0 333.11 142.72" style="enable-background:new 0 0 333.11 142.72;" xml:space="preserve">
<g>
	<g>
		<path d="M149.42,123.5c-1.97-3.24-1.93-7.61,0.18-10.83c1.04-1.6,2.55-2.94,4.36-3.65c1.79-0.73,3.78-0.93,5.69-0.66
			c1.92,0.25,3.78,1.01,5.34,2.19c0.77,0.6,1.47,1.3,2.07,2.08c0.58,0.79,1.07,1.65,1.44,2.55c1.46,3.63,1.22,7.95-0.84,11.37
			c-2.07,3.42-5.74,5.68-9.65,6.32c-3.93,0.71-8.14-0.46-11.24-2.96c-3.14-2.47-5.32-6.04-6.23-9.92c-0.46-1.94-0.59-3.96-0.44-5.95
			c0.2-1.98,0.68-3.92,1.34-5.77c1.38-3.7,3.47-7.02,5.85-10.06c2.38-3.04,5.1-5.81,7.89-8.37c5.54-5.2,11.38-10.09,17.52-14.59
			c6.14-4.5,12.54-8.66,19.22-12.35c6.69-3.67,13.64-6.89,20.82-9.54c14.36-5.25,29.78-8.15,45.24-7.37
			c3.86,0.14,7.7,0.62,11.53,1.2c1.9,0.36,3.81,0.7,5.69,1.13c1.87,0.49,3.77,0.87,5.62,1.47l2.78,0.84
			c0.93,0.28,1.83,0.64,2.74,0.95c0.91,0.33,1.83,0.64,2.73,0.99l2.68,1.12c0.9,0.38,1.78,0.71,2.7,1.19
			c0.91,0.44,1.82,0.89,2.68,1.43l1.31,0.78l1.25,0.87c0.85,0.56,1.64,1.22,2.42,1.87c3.11,2.64,5.81,5.87,7.66,9.62
			c1.87,3.73,2.89,7.95,2.83,12.18c-0.02,1.05-0.15,2.1-0.22,3.15c-0.2,1.03-0.37,2.07-0.61,3.09c-0.31,1-0.58,2.01-0.93,2.99
			c-0.38,0.97-0.77,1.94-1.25,2.87c-1.85,3.78-4.7,7.11-8.08,9.59c-3.38,2.5-7.21,4.17-11.07,5.31c-3.87,1.14-7.81,1.76-11.71,2.09
			c-7.83,0.64-15.55,0.21-23.14-0.49c-15.24-1.38-30.32-4.21-45.05-8.28c-14.74-4.08-29.09-9.38-43.01-15.74
			c-13.99-6.46-26.93-14.54-39.88-22.17c-12.93-7.64-25.99-14.92-39.86-19.72c-6.88-2.37-14.05-4.07-21.26-5.05
			c-7.22-1.01-14.52-1.22-21.68-0.54c-3.57,0.38-7.1,1-10.53,1.9c-1.74,0.47-3.37,0.93-4.92,1.59c-0.8,0.29-1.54,0.69-2.32,1.03
			c-0.74,0.41-1.51,0.76-2.21,1.22c-5.78,3.42-10.39,8.77-12.34,14.96c-0.52,1.54-0.81,3.13-0.97,4.72
			c-0.17,1.59-0.13,3.2,0.07,4.79c0.18,1.59,0.56,3.16,1.11,4.68c0.51,1.53,1.24,3,2.07,4.42c1.69,2.82,3.89,5.45,6.47,7.64
			c2.56,2.2,5.43,4.02,8.53,5.43c3.11,1.39,6.46,2.31,9.89,2.91c1.71,0.33,3.47,0.47,5.22,0.64c1.77,0.08,3.53,0.17,5.32,0.12
			c7.14-0.13,14.32-1.29,21.39-3.28c1.77-0.48,3.55-0.92,5.32-1.43l5.24-1.73l2.62-0.86c0.87-0.31,1.72-0.67,2.58-1l5.15-2.02
			c1.72-0.67,3.38-1.49,5.08-2.23c1.68-0.78,3.39-1.47,5.05-2.32c3.31-1.69,6.67-3.25,9.92-5.09c13.11-7.08,25.75-15.16,38.46-23.33
			c12.72-8.14,25.53-16.34,39.02-23.58c13.5-7.23,27.71-13.31,42.48-17.62c14.76-4.36,30.02-7.01,45.5-7.58
			c7.76-0.24,15.84,0.29,23.61,2.83c3.89,1.31,7.63,3.1,11.03,5.49c3.4,2.37,6.47,5.33,8.87,8.85c1.2,1.75,2.24,3.65,2.99,5.66
			l0.58,1.51c0.19,0.5,0.3,1.03,0.44,1.55l0.41,1.56l0.26,1.58c0.67,4.23,0.4,8.52-0.56,12.57c-1.94,8.12-6.48,15.38-12.72,20.79
			c-6.27,5.36-13.82,8.7-21.52,10.58c-7.72,1.88-15.61,2.38-23.37,2.07c-15.49-0.61-30.67-4.13-45.09-9.17
			c-14.46-5.03-28.24-11.51-41.83-18.12c-13.6-6.6-27.07-13.32-40.95-18.95c-13.87-5.62-28.21-10.08-42.98-12.08
			c-7.37-1.01-14.83-1.48-22.24-1.12c-7.39,0.37-14.78,1.56-21.65,4.15c-6.85,2.57-13.17,6.68-17.67,12.43
			c-2.25,2.87-4.16,6-5.26,9.44c-1.16,3.42-1.6,7.08-1.27,10.68c0.36,3.58,1.5,7.12,3.47,10.14c1.93,3.03,4.78,5.47,8.06,6.94
			c3.28,1.52,7.03,1.96,10.59,1.32c3.59-0.61,6.92-2.45,9.16-5.32c2.25-2.84,3.33-6.58,2.99-10.23c-0.33-3.64-1.99-7.25-4.93-9.51
			c-2.87-2.26-7.02-3.09-10.44-1.53c-0.84,0.38-1.66,0.86-2.34,1.5c-0.7,0.61-1.3,1.35-1.72,2.18c-0.92,1.64-1.04,3.65-0.58,5.47
			c-0.5-1.81-0.45-3.84,0.45-5.54c0.41-0.86,1-1.63,1.7-2.28c0.68-0.67,1.51-1.19,2.37-1.6c3.49-1.71,7.85-0.98,10.93,1.32
			c3.16,2.29,5.02,6.06,5.47,9.9c0.46,3.86-0.57,7.91-2.93,11.06c-2.33,3.18-6,5.29-9.83,6.03c-3.84,0.78-7.94,0.39-11.56-1.19
			c-3.63-1.53-6.82-4.13-9.02-7.43c-2.23-3.26-3.55-7.09-4.04-10.99c-0.44-3.92-0.05-7.92,1.13-11.67c1.12-3.79,3.16-7.24,5.5-10.34
			c2.37-3.11,5.22-5.86,8.41-8.12c3.18-2.27,6.65-4.1,10.26-5.54c7.23-2.87,14.91-4.24,22.57-4.77c7.67-0.51,15.35-0.17,22.95,0.73
			c7.6,0.88,15.11,2.47,22.48,4.47c7.37,2.01,14.6,4.47,21.69,7.23c14.19,5.52,27.86,12.1,41.52,18.49
			c13.66,6.38,27.32,12.65,41.45,17.39c14.1,4.76,28.7,7.96,43.44,8.39c7.32,0.22,14.64-0.35,21.58-2.11
			c6.91-1.76,13.49-4.83,18.68-9.36c5.12-4.51,8.93-10.7,10.44-17.3c0.76-3.29,0.92-6.68,0.39-9.91l-0.2-1.21l-0.33-1.18
			c-0.12-0.39-0.19-0.79-0.34-1.17l-0.45-1.13c-0.57-1.52-1.37-2.96-2.31-4.31c-3.74-5.45-9.81-9.38-16.33-11.51
			c-6.63-2.13-13.86-2.62-21.15-2.34c-14.71,0.64-29.41,3.26-43.57,7.56c-14.19,4.27-27.89,10.1-40.99,17.17
			c-13.12,7.07-25.75,15.18-38.44,23.34c-12.68,8.18-25.47,16.41-38.93,23.71c-3.32,1.89-6.81,3.52-10.22,5.27
			c-1.71,0.88-3.49,1.61-5.23,2.42c-1.76,0.77-3.48,1.63-5.28,2.33l-5.38,2.13c-0.9,0.35-1.79,0.72-2.7,1.05l-2.75,0.92l-5.51,1.83
			c-1.86,0.55-3.74,1.01-5.62,1.51c-7.46,2.07-15.31,3.36-23.27,3.48c-1.99,0.05-3.99-0.05-6-0.15c-2.01-0.19-4.01-0.37-6.01-0.75
			c-3.99-0.71-7.98-1.81-11.76-3.51c-3.77-1.72-7.33-3.98-10.49-6.7c-3.16-2.72-5.88-5.93-8.06-9.6c-1.07-1.84-2.01-3.77-2.7-5.82
			c-0.72-2.03-1.23-4.15-1.48-6.31c-0.56-4.31-0.09-8.75,1.23-12.85c2.64-8.26,8.62-15.02,15.8-19.26c0.88-0.56,1.83-1.01,2.75-1.51
			c0.95-0.42,1.88-0.9,2.86-1.26c1.93-0.81,3.94-1.38,5.85-1.88c3.87-1.01,7.8-1.69,11.73-2.09c7.88-0.74,15.77-0.48,23.5,0.62
			c7.74,1.06,15.32,2.93,22.7,5.52c14.69,5.19,28.1,12.83,41.09,20.6c12.99,7.78,25.69,15.8,39.11,22.08
			c13.5,6.28,27.54,11.53,41.87,15.64c14.33,4.11,29.01,7.03,43.83,8.52c7.42,0.76,14.84,1.23,22.07,0.71
			c3.61-0.27,7.18-0.81,10.56-1.77c3.38-0.96,6.58-2.35,9.3-4.32c2.72-1.97,4.94-4.5,6.45-7.49c1.52-2.99,2.47-6.35,2.52-9.66
			c0.07-3.33-0.68-6.65-2.14-9.69c-1.44-3.05-3.63-5.78-6.24-8.05c-0.65-0.57-1.31-1.13-2.03-1.62l-1.06-0.76l-1.12-0.68
			c-0.73-0.48-1.51-0.87-2.29-1.26c-0.75-0.41-1.63-0.76-2.47-1.13l-2.53-1.1c-0.85-0.35-1.72-0.65-2.58-0.98
			c-0.86-0.31-1.71-0.67-2.59-0.95l-2.63-0.83c-1.74-0.6-3.54-0.98-5.32-1.47c-1.79-0.44-3.6-0.78-5.4-1.15
			c-3.63-0.6-7.28-1.12-10.97-1.3c-14.74-0.97-29.63,1.62-43.67,6.48c-7.03,2.45-13.87,5.47-20.48,8.94
			c-6.6,3.49-12.96,7.45-19.08,11.77c-6.12,4.31-11.96,9.03-17.52,14.06c-2.82,2.49-5.44,5.08-7.79,7.94
			c-2.33,2.85-4.36,5.95-5.7,9.31c-0.65,1.69-1.11,3.43-1.34,5.2c-0.17,1.77-0.1,3.56,0.28,5.3c0.73,3.49,2.64,6.76,5.39,9.02
			c2.73,2.28,6.39,3.4,9.95,2.85c3.54-0.49,6.92-2.48,8.85-5.51c1.93-3,2.29-7.02,1.02-10.41c-0.33-0.85-0.75-1.65-1.27-2.4
			c-0.54-0.73-1.16-1.4-1.87-1.97c-1.42-1.13-3.15-1.9-4.97-2.18c-1.81-0.31-3.71-0.17-5.44,0.48c-1.74,0.63-3.22,1.86-4.27,3.39
			C147.73,115.91,147.54,120.22,149.42,123.5z"/>
	</g>
</g>
</svg>
